<mxfile host="app.diagrams.net" agent="Mozilla/5.0 (Windows NT 10.0; Win64; x64) AppleWebKit/537.36 (KHTML, like Gecko) Chrome/127.0.0.0 Safari/537.36" version="24.7.6">
  <diagram name="Page-1" id="10a91c8b-09ff-31b1-d368-03940ed4cc9e">
    <mxGraphModel dx="1155" dy="655" grid="1" gridSize="10" guides="1" tooltips="1" connect="1" arrows="1" fold="1" page="1" pageScale="1" pageWidth="1100" pageHeight="850" background="none" math="0" shadow="0">
      <root>
        <mxCell id="0" />
        <mxCell id="1" parent="0" />
        <mxCell id="62893188c0fa7362-1" value="T" style="whiteSpace=wrap;html=1;rounded=1;shadow=1;labelBackgroundColor=none;strokeWidth=1;fontFamily=Verdana;fontSize=12;align=center;" parent="1" vertex="1">
          <mxGeometry x="610" y="50" width="120" height="60" as="geometry" />
        </mxCell>
        <mxCell id="62893188c0fa7362-2" value="h1" style="whiteSpace=wrap;html=1;rounded=1;shadow=1;labelBackgroundColor=none;strokeWidth=1;fontFamily=Verdana;fontSize=12;align=center;fillColor=#fff2cc;strokeColor=#d6b656;" parent="1" vertex="1">
          <mxGeometry x="430" y="170" width="120" height="60" as="geometry" />
        </mxCell>
        <mxCell id="62893188c0fa7362-3" value="&lt;span&gt;h2&lt;/span&gt;" style="whiteSpace=wrap;html=1;rounded=1;shadow=1;labelBackgroundColor=none;strokeWidth=1;fontFamily=Verdana;fontSize=12;align=center;" parent="1" vertex="1">
          <mxGeometry x="780" y="170" width="120" height="60" as="geometry" />
        </mxCell>
        <mxCell id="62893188c0fa7362-4" value="" style="rounded=0;html=1;labelBackgroundColor=none;startArrow=none;startFill=0;startSize=5;endArrow=none;endFill=0;endSize=5;jettySize=auto;orthogonalLoop=1;strokeWidth=1;fontFamily=Verdana;fontSize=12" parent="1" source="62893188c0fa7362-1" target="62893188c0fa7362-3" edge="1">
          <mxGeometry x="-0.3002" y="13" relative="1" as="geometry">
            <mxPoint as="offset" />
          </mxGeometry>
        </mxCell>
        <mxCell id="62893188c0fa7362-5" value="" style="rounded=0;html=1;labelBackgroundColor=none;startArrow=none;startFill=0;startSize=5;endArrow=none;endFill=0;endSize=5;jettySize=auto;orthogonalLoop=1;strokeWidth=1;fontFamily=Verdana;fontSize=12" parent="1" source="62893188c0fa7362-1" target="62893188c0fa7362-2" edge="1">
          <mxGeometry x="-0.359" y="-11" relative="1" as="geometry">
            <mxPoint as="offset" />
          </mxGeometry>
        </mxCell>
        <mxCell id="62893188c0fa7362-8" value="&lt;span&gt;h11&lt;/span&gt;" style="whiteSpace=wrap;html=1;rounded=1;shadow=1;labelBackgroundColor=none;strokeWidth=1;fontFamily=Verdana;fontSize=12;align=center;fillColor=#fff2cc;strokeColor=#d6b656;" parent="1" vertex="1">
          <mxGeometry x="320" y="280" width="120" height="60" as="geometry" />
        </mxCell>
        <mxCell id="62893188c0fa7362-9" value="&lt;span&gt;h12&lt;/span&gt;" style="whiteSpace=wrap;html=1;rounded=1;shadow=1;labelBackgroundColor=none;strokeWidth=1;fontFamily=Verdana;fontSize=12;align=center;fillColor=#fff2cc;strokeColor=#d6b656;" parent="1" vertex="1">
          <mxGeometry x="540" y="280" width="120" height="60" as="geometry" />
        </mxCell>
        <mxCell id="62893188c0fa7362-10" value="&lt;span&gt;h21&lt;/span&gt;" style="whiteSpace=wrap;html=1;rounded=1;shadow=1;labelBackgroundColor=none;strokeWidth=1;fontFamily=Verdana;fontSize=12;align=center;" parent="1" vertex="1">
          <mxGeometry x="690" y="280" width="120" height="60" as="geometry" />
        </mxCell>
        <mxCell id="62893188c0fa7362-11" value="&lt;span&gt;h22&lt;/span&gt;" style="whiteSpace=wrap;html=1;rounded=1;shadow=1;labelBackgroundColor=none;strokeWidth=1;fontFamily=Verdana;fontSize=12;align=center;" parent="1" vertex="1">
          <mxGeometry x="880" y="280" width="120" height="60" as="geometry" />
        </mxCell>
        <mxCell id="62893188c0fa7362-12" value="&lt;span&gt;h111&lt;/span&gt;" style="whiteSpace=wrap;html=1;rounded=1;shadow=1;labelBackgroundColor=none;strokeWidth=1;fontFamily=Verdana;fontSize=12;align=center;fillColor=#fff2cc;strokeColor=#d6b656;" parent="1" vertex="1">
          <mxGeometry x="160" y="395" width="120" height="60" as="geometry" />
        </mxCell>
        <mxCell id="62893188c0fa7362-13" value="&lt;span&gt;h112&lt;/span&gt;" style="whiteSpace=wrap;html=1;rounded=1;shadow=1;labelBackgroundColor=none;strokeWidth=1;fontFamily=Verdana;fontSize=12;align=center;fillColor=#fff2cc;strokeColor=#d6b656;" parent="1" vertex="1">
          <mxGeometry x="490" y="395" width="120" height="60" as="geometry" />
        </mxCell>
        <mxCell id="62893188c0fa7362-14" value="" style="rounded=0;html=1;labelBackgroundColor=none;startArrow=none;startFill=0;startSize=5;endArrow=none;endFill=0;endSize=5;jettySize=auto;orthogonalLoop=1;strokeWidth=1;fontFamily=Verdana;fontSize=12" parent="1" source="62893188c0fa7362-2" target="62893188c0fa7362-8" edge="1">
          <mxGeometry x="-0.2" y="-14" relative="1" as="geometry">
            <mxPoint as="offset" />
          </mxGeometry>
        </mxCell>
        <mxCell id="62893188c0fa7362-15" value="" style="rounded=0;html=1;labelBackgroundColor=none;startArrow=none;startFill=0;startSize=5;endArrow=none;endFill=0;endSize=5;jettySize=auto;orthogonalLoop=1;strokeWidth=1;fontFamily=Verdana;fontSize=12" parent="1" source="62893188c0fa7362-2" target="62893188c0fa7362-9" edge="1">
          <mxGeometry x="-0.2" y="14" relative="1" as="geometry">
            <mxPoint as="offset" />
          </mxGeometry>
        </mxCell>
        <mxCell id="62893188c0fa7362-16" value="" style="rounded=0;html=1;labelBackgroundColor=none;startArrow=none;startFill=0;startSize=5;endArrow=none;endFill=0;endSize=5;jettySize=auto;orthogonalLoop=1;strokeWidth=1;fontFamily=Verdana;fontSize=12" parent="1" source="62893188c0fa7362-3" target="62893188c0fa7362-10" edge="1">
          <mxGeometry x="-0.2614" y="-13" relative="1" as="geometry">
            <mxPoint as="offset" />
          </mxGeometry>
        </mxCell>
        <mxCell id="62893188c0fa7362-17" value="" style="rounded=0;html=1;labelBackgroundColor=none;startArrow=none;startFill=0;startSize=5;endArrow=none;endFill=0;endSize=5;jettySize=auto;orthogonalLoop=1;strokeWidth=1;fontFamily=Verdana;fontSize=12" parent="1" source="62893188c0fa7362-3" target="62893188c0fa7362-11" edge="1">
          <mxGeometry x="-0.1294" y="17" relative="1" as="geometry">
            <mxPoint as="offset" />
          </mxGeometry>
        </mxCell>
        <mxCell id="62893188c0fa7362-18" value="" style="rounded=0;html=1;labelBackgroundColor=none;startArrow=none;startFill=0;startSize=5;endArrow=none;endFill=0;endSize=5;jettySize=auto;orthogonalLoop=1;strokeWidth=1;fontFamily=Verdana;fontSize=12" parent="1" source="62893188c0fa7362-8" target="62893188c0fa7362-12" edge="1">
          <mxGeometry x="-0.2168" y="-14" relative="1" as="geometry">
            <mxPoint as="offset" />
          </mxGeometry>
        </mxCell>
        <mxCell id="62893188c0fa7362-19" value="" style="rounded=0;html=1;labelBackgroundColor=none;startArrow=none;startFill=0;startSize=5;endArrow=none;endFill=0;endSize=5;jettySize=auto;orthogonalLoop=1;strokeWidth=1;fontFamily=Verdana;fontSize=12" parent="1" source="62893188c0fa7362-8" target="62893188c0fa7362-13" edge="1">
          <mxGeometry x="-0.2842" y="12" relative="1" as="geometry">
            <mxPoint as="offset" />
          </mxGeometry>
        </mxCell>
        <mxCell id="-bRANsOy7w-98vsGsBM8-1" value="" style="shape=stencil(lVvJch03DPwaXVkEd54d5z9cZTlWRZFcsrP9fcCoOE9szDTlm/QGGJJYGyDmLn74/vXTt/u74L//eHn+/f7vh88/vt7FX+5CeHj6ev/y8EP/uosf7+KHL88v97+9PP/59Pn1/2+fBuX464/nv8Yb/nnl8863wRT8v68/tO6y/P/Lr6/0jw9PC32uK31zJVzTi0tlpS+u1mv6MN920Ccn+Zpen8pKrzsk+8mupoW+Fuf7NX2dbzvovWvlml6lt8qzJBeJPEVc7gtDrlyg0ZX1xFmc94QhT4VOhpRci4ShurjqLHYX2Bn08SrUGF0jZ1Cr8CtDaK6TFYZZrGJVxTM162O/nmGsSQ6thhHXLakYeiMMxeW4MugriKWqKZV1S6pKZtoqkworCNWDGl9ZbalPsZ3SR++KX53HRUavtrrSq6UQy4uqtbw6wzSUc3p15jW4ZCeMPk+jOSzbCfHNeGj0sFMXiE0kP0PVYUQuk/cns/9AY0tq83iHgl0lBpF1eaRn+8llGuSNPhH95m58wCWi33Isf6OPxClLdD4APbMHDZ1BgF7Y+7NL4DBzwXP6glFFYzuRT6muZaCvbP9tRsEbfWbv7xhSPJW/piKP72fyVPqUgF74+zvuh8mzCiY/TzNTDagvP/PCOX1E8OFnlD+n1zyH9ELkr1BACtBHglVqneHyRl8YltDwusZnofGqal5F/y1EPgp9/CrP4ALRVzvM/UbPUl4TG2+Zfpvx98z3Y+JncYnIv2WMD3UmtHP6Mrd7y3eJxFulL6s8+0Sb5/TVBQ/0jdO3lV7UgNiBGzqwbCyiIzyW4CoxOWWoYHIK5YhNd3URiLmJQjllaOAEma8gJqqXKbdzBs26cGhN/ESsygAYXBFtYmeIM44cjnOEyisGiETqapUdOrm0bikcv5wzZDx0yFwPefrWwXCY7xVDg+jSOIMJp8N/mB4UUq/Gpwg1kYChDH09g0LUTjy6m4itlQoLMcoAEFBBKl2hOQ8MhSYdZQAHihxVKwOgwNho2OumjtB6juEcZehrXEoK1JiUOlZbSc2brdBnInhTkzIoogwJtnQUbFcMYEup0GTeO4LBVLni+vTgNwyduWjHIKAFACvElQHwV9I1uZTAH7Kn3RzxHlNilqn8d+4pR7rEODWskLi59pnSDoZMYXY/gvWbFgqr9ZVB4AxHYr1yiAZb6lxzDXsuhZc6yhDWLZUwwe5VYAJVa3VFt1Qxs2u5xNCbMkCc0XqJlePKEKD3VWf37zJ8rx6kFVPn8b6uYUNLlMwOXbD9qDUHK/mVIQBDpJh4JDnYUqYYTtMoHHqUEWxLGVG61hEUMGW0VgX6rM4YDICLZVYe72UItJU1GKBNG7mLZiydlaFvzrA6UNskastQaHV7ItY6c/0lw+pxrW0ZCjJsMByYxoDjnAEy+0DXXEp91YOC5cCNr69SUuxLE3WeajoYeGt3MKyRT3+hQSBj22+Ehc0ZoI9auZRMYXlDRO/dUp9N9/cqrs/i9IoB0MlIxFwPkHZvaOKygICqyfN+j3IA1L2hiSsGLKg7x5V5osg3DJmf2ptTB64I6LEMtMw9CAoCZSh8BSiblIG1AYeUOjIE7kHQRlAG1lgdDmZW2DBUs8JmS81IaXPobqRExWp9dKs4jAJb0+jGvDfG1wzDxrzxgmfrQHhj8A4fNZFpEwaC8aBNoBFz6k0o8xkZNsESfXQbjn+eAQ69yRD2DNscBCX1PsthnNnmUQ/GtM3U0EzcYwHU9BZtCEhpi2egY7xHTNC522MyWaW0R32Qs/a4Ehm2yDUYML1jiMjguZSgChr4fhM1TAWxKTkgzDR+lzNyFhRmjXdQM15O1m1/ExpAWsnlnypqtFakWyrYo62yKy6xGvW8MCum79DolWMv2N/Umt0zhop3OiXTgZ7RFYA2QqIDLiOSms4G7c5U7G+WsGu5AhQoftfOgc5G3lwQmB5tbvRqc/RoV03nwpNiwzor53m7eNmjhd5gmqe67NHCCnz8YTDACsIBk2FIfZbMl4076NE27g/m/ittWlIdzTuVOcRy2RqELvABlt/ZjU+J938a3nqnwPvM5po5HYM7l+YNh/a8ndMQzcRNS6oivI+Vd8kqjg7Fwo3P3uzwcazRfDRXQfQMBRNKDNzjCsKf6Hl7M6NpbAa4bCEXGp1AGGhm1XTY6CHNxwdD4YdOONMUEq8fIk5YjqksflsLfbiwQZUBA5n0GTzPGQSRgGyyqKCmpXJ073FSRgovFc1oh3Bw0vqUycGQaP3QzLCSxHnxfsUAYF0C9bhmZmlFaBZV4NyxeqWXIsqQ1hV4Pmmmj91p3GvZDpCwq9qBy1fvqfQCXFE2IMpMA4aCbLgPSfOHc3rv6vr+OCPOKX01N5Y881RzsRYoclMID50rjodvNyU3euYE1URgDkjGwBgOXNEBOTOQxoeM7cCb8AE2MxwudABpDOyZ/bP9eBzo3dLD1wJCgXYx0/Cbgc9m5c8GkouBFUJjXCnz+vxGz/LrGCjF/bC59jGwivpl/jsGYiGV0SphDNyiP7I27BjozUDPSmA7MBxoiTAKAqRnjbkx8AwTQdR/x1AITEFRiKawFXJYpBkpmmGdRPsisZjqgLZf4/Htxy2es8EbBZTQEC700jMKxnM+gaL4E/yr09aUPsZ44mnHb7wPRu+EtkTGhs28IUthKhFAf3JcHZwzZPPZRaPYTHUK5dOIKmxL0YzeJaqGEdXAjTudTRITR9WyGEZW+ImJvtNBUTH3L1rGsspaDLTRYp/N6omgpnctEQR/Gl3ZGJDJBZo9We+4YPtb0QID+cl8ySazCj7XMgqoJQq2xMxUVHoD5vFGWCE/6yN4NGutKYRYqcdc0Hnv0ZtbSB4rvLk34r1+j72fQU/lg5cPnoI/g20GPX0/XgF5Cs48RonOv6Ywk3mqX3a1cUbPxqTNflqnvQNz3vGlKKf/yS9Ld/T6x+0z1i8Pj4+vX8G+fY6fvepPr5/Mxo//AQ==);lineShape=1;strokeColor=default;" vertex="1" parent="1">
          <mxGeometry x="82.5728465374948" y="145.30007641967472" width="606.6370161671432" height="312.4120431618194" as="geometry" />
        </mxCell>
      </root>
    </mxGraphModel>
  </diagram>
</mxfile>
